Coordinates
version=1
nRows=15
nColumns=26
inDegrees=yes

Units are S.I. units (second, meters, Newtons, ...)
If the header above contains a line with 'inDegrees', this indicates whether rotational values are in degrees (yes) or radians (no).

endheader
time	pelvis_tilt	pelvis_list	pelvis_rotation	pelvis_tx	pelvis_ty	pelvis_tz	hip_flexion_r	hip_adduction_r	hip_rotation_r	knee_angle_r	knee_angle_r_beta	ankle_angle_r	subtalar_angle_r	mtp_angle_r	hip_flexion_l	hip_adduction_l	hip_rotation_l	knee_angle_l	knee_angle_l_beta	ankle_angle_l	subtalar_angle_l	mtp_angle_l	lumbar_extension	lumbar_bending	lumbar_rotation
      0.00000000	      1.41792756	     10.20851665	      6.84525086	     -0.43089034	      0.85825466	     -0.22583692	     12.47046525	     -9.46557115	      0.31971161	    100.94286508	      1.76178535	    -19.38119493	    -17.98852405	      0.00000000	     13.59376260	     16.82657144	      4.68789261	     49.79783612	      0.86913620	     25.27346382	     -5.57330338	      0.00000000	    -23.73084224	    -11.42292006	     -7.66209360
      0.00500000	      1.58511046	      9.84888868	      6.85745387	     -0.41901654	      0.85934957	     -0.22593926	     13.96024546	     -9.01296651	      0.42276965	    101.47170509	      1.77101535	    -18.66246394	    -17.83502845	      0.00000000	     12.32212647	     16.40044072	      5.18372720	     49.47042269	      0.86342176	     25.45165374	     -5.43071910	      0.00000000	    -23.92190512	    -10.98754979	     -8.41941229
      0.01000000	      1.50610361	      9.49375985	      6.58168791	     -0.40644213	      0.86057907	     -0.22560702	     15.72550373	     -8.49905525	      0.77818190	    101.79565382	      1.77666932	    -18.42171600	    -17.83068223	      0.00000000	     11.05209080	     15.90792544	      5.44221890	     48.65468168	      0.84918439	     25.49864213	     -5.31124781	      0.00000000	    -23.74296532	    -10.65879230	     -8.74979381
      0.01500000	      1.04005470	      8.86438695	      6.56828489	     -0.39442148	      0.86140065	     -0.22568104	     17.93184919	     -7.76815130	      0.86629459	    102.06741257	      1.78141241	    -17.82804901	    -17.65469169	      0.00000000	     10.36493545	     15.24396799	      5.92608049	     48.16410624	      0.84062224	     25.76968464	     -5.22030028	      0.00000000	    -23.15122918	    -10.04389411	     -9.29700990
      0.02000000	      0.69869290	      8.44866831	      6.18859821	     -0.38187660	      0.86302289	     -0.22518030	     19.91138741	     -7.12932040	      1.28161923	    101.96481546	      1.77962175	    -19.34358738	    -17.75622631	      0.00000000	      9.25450763	     14.67053290	      5.96263873	     46.89469358	      0.81846680	     25.90211974	     -5.15176854	      0.00000000	    -22.62020673	     -9.74175818	     -9.61626551
      0.02500000	      0.41316117	      7.97518065	      6.04132173	     -0.36939716	      0.86486515	     -0.22466922	     21.73590601	     -6.47009550	      1.32767616	    101.83534761	      1.77736211	    -19.04509366	    -17.80402681	      0.00000000	      8.12011543	     14.04810114	      6.23436095	     45.84407188	      0.80013000	     25.79744354	     -5.06118318	      0.00000000	    -22.17735080	     -9.31214132	    -10.04875149
      0.03000000	      0.05342350	      7.49066150	      5.78443484	     -0.35649228	      0.86696356	     -0.22413512	     23.59545556	     -5.76588996	      1.43603324	    101.53088656	      1.77204826	    -18.63667036	    -17.83174644	      0.00000000	      7.04866220	     13.45524329	      6.48450401	     44.73504912	      0.78077390	     25.58214757	     -4.98681176	      0.00000000	    -21.56252902	     -8.89964509	    -10.43123480
      0.03500000	     -0.40939754	      6.93288325	      5.66076015	     -0.34366980	      0.86919145	     -0.22403988	     25.42887446	     -5.03509777	      1.38830224	    101.01695412	      1.76307845	    -18.17120211	    -17.77188320	      0.00000000	      6.00985805	     12.85558282	      6.95141282	     43.47626758	      0.75880402	     25.35178223	     -5.09806034	      0.00000000	    -20.86342951	     -8.33453727	    -10.93213799
      0.04000000	     -0.78866781	      6.39236668	      5.37647775	     -0.33039577	      0.87173586	     -0.22371412	     27.05878848	     -4.38418502	      1.31008006	    100.37100220	      1.75180446	    -17.69472833	    -17.78555156	      0.00000000	      4.83849668	     12.21812800	      7.16323100	     42.13079996	      0.73532118	     24.96313777	     -5.05823849	      0.00000000	    -20.16183619	     -7.80078036	    -11.26702384
      0.04500000	     -1.15554163	      5.82000534	      5.09883900	     -0.31752943	      0.87460048	     -0.22325599	     28.65898336	     -3.57088697	      1.23091424	     99.54366903	      1.73736477	    -17.13535331	    -17.81317857	      0.00000000	      3.62779729	     11.51186159	      7.34151524	     40.64755277	      0.70943363	     24.44930716	     -5.01759360	      0.00000000	    -19.57409466	     -7.22837782	    -11.60638692
      0.05000000	     -0.97774066	      5.14883009	      4.93653408	     -0.30407551	      0.87870249	     -0.22309174	     29.33642875	     -2.74627650	      0.83856480	     98.26014539	      1.71496306	    -16.26861462	    -17.76350485	      0.00000000	      1.65397433	     10.73898660	      7.92480686	     38.85919397	      0.67822088	     23.32596061	     -6.03304244	      0.00000000	    -19.64507757	     -6.39436200	    -12.00755693
      0.05500000	     -1.26127845	      4.60559240	      4.75096641	     -0.29072957	      0.88196928	     -0.22282638	     30.61430433	     -2.08565164	      0.56459094	     97.07047282	      1.69419936	    -15.47630193	    -17.86407209	      0.00000000	      0.29286621	     10.13890644	      8.33378803	     37.25646846	      0.65024804	     21.93808222	     -6.89939489	      0.00000000	    -19.11123649	     -5.78760743	    -12.52141766
      0.06000000	     -1.51653270	      3.83740735	      4.64399169	     -0.27728376	      0.88553934	     -0.22267087	     31.69594258	     -1.33883935	     -0.02834946	     95.67947602	      1.66992188	    -14.39647916	    -17.70519566	      0.00000000	     -1.06878011	      9.18386901	      8.47376506	     35.59243388	      0.62120516	     20.81939447	     -7.11133687	      0.00000000	    -18.65937560	     -4.86369246	    -12.66752196
      0.06500000	     -1.88944803	      3.19929546	      4.43345672	     -0.26376499	      0.88891887	     -0.22207770	     32.91500555	     -0.48115030	     -0.35201612	     94.12463952	      1.64278487	    -13.69615809	    -17.80983115	      0.00000000	     -2.26558604	      8.34114663	      8.42986303	     33.99188063	      0.59327024	     19.56368534	     -6.94298391	      0.00000000	    -18.06144534	     -4.18703772	    -13.06352877
      0.07000000	     -1.89881718	      2.43281606	      4.41807677	     -0.24983438	      0.89294160	     -0.22184723	     33.42869694	      0.32212686	     -1.03704850	     92.26619708	      1.61034893	    -12.50006722	    -17.82314375	      0.00000000	     -3.97335710	      7.37638483	      8.68223890	     32.09538728	      0.56017018	     17.48636974	     -8.12223588	      0.00000000	    -17.86075928	     -3.25867701	    -13.58633755
